<svg width="69" height="69" viewBox="0 0 69 69" fill="none" xmlns="http://www.w3.org/2000/svg">
<path d="M64.6875 23.2875L57.5 27.2406L50.3125 34.0687V57.5H60.375C62.7569 57.5 64.6875 55.5694 64.6875 53.1875V23.2875Z" fill="#4CAF50"/>
<path d="M4.3125 23.2875L9.50762 25.7456L18.6875 34.0687V57.5H8.625C6.24306 57.5 4.3125 55.5694 4.3125 53.1875V23.2875Z" fill="#1E88E5"/>
<path d="M50.3125 16.1L34.5 27.9594L18.6875 16.1L17.25 24.4375L18.6875 34.0687L34.5 45.9281L50.3125 34.0687L51.75 24.4375L50.3125 16.1Z" fill="#E53935"/>
<path d="M4.3125 17.6784V23.2875L18.6875 34.0688V16.1L14.1968 12.7348C13.1273 11.9327 11.8277 11.5 10.4909 11.5C7.07825 11.5 4.3125 14.2658 4.3125 17.6784Z" fill="#C62828"/>
<path d="M64.6875 17.6784V23.2875L50.3125 34.0688V16.1L54.8033 12.7348C55.8728 11.9327 57.1722 11.5 58.5091 11.5C61.9218 11.5 64.6875 14.2658 64.6875 17.6784Z" fill="#FBC02D"/>
</svg>
