<svg width="69" height="69" viewBox="0 0 69 69" fill="none" xmlns="http://www.w3.org/2000/svg">
<path d="M60.375 53.1875C60.375 57.1579 57.1579 60.375 53.1875 60.375H15.8125C11.8436 60.375 8.625 57.1579 8.625 53.1875V15.8125C8.625 11.8421 11.8436 8.625 15.8125 8.625H53.1875C57.1579 8.625 60.375 11.8421 60.375 15.8125V53.1875Z" fill="#0288D1"/>
<path d="M17.25 27.3125H24.4375V51.75H17.25V27.3125ZM20.8222 24.4375H20.7819C18.6372 24.4375 17.25 22.839 17.25 20.8423C17.25 18.8025 18.6803 17.25 20.8639 17.25C23.0503 17.25 24.3973 18.8025 24.4375 20.8423C24.4375 22.8376 23.0503 24.4375 20.8222 24.4375ZM51.75 51.75H44.5625V38.6702C44.5625 35.5106 42.8016 33.3543 39.974 33.3543C37.8163 33.3543 36.6491 34.8091 36.0827 36.2149C35.8757 36.7181 35.9375 38.1096 35.9375 38.8125V51.75H28.75V27.3125H35.9375V31.073C36.9739 29.4687 38.5969 27.3125 42.7484 27.3125C47.8918 27.3125 51.7486 30.5469 51.7486 37.7689L51.75 51.75Z" fill="white"/>
</svg>
