<svg width="69" height="69" viewBox="0 0 69 69" fill="none" xmlns="http://www.w3.org/2000/svg">
<path d="M34.5 6.46875C19.0192 6.46875 6.46875 19.0192 6.46875 34.5C6.46875 47.7361 15.6458 58.8225 27.9827 61.7615C27.3445 61.6095 26.7116 61.4391 26.0906 61.245V54.8227C26.0906 54.8227 25.0395 55.173 23.6379 55.173C19.7167 55.173 18.0877 51.6745 17.6812 49.9172C17.4344 48.8466 16.7896 47.8321 16.0975 47.2122C15.2706 46.4747 14.8835 46.4726 14.8781 46.2203C14.8673 45.6909 15.5875 45.7125 15.9293 45.7125C17.6812 45.7125 19.0095 47.5766 19.6262 48.5404C21.1539 50.9198 22.7937 51.3187 23.6379 51.3187C24.6891 51.3187 25.5968 51.1613 26.2222 50.8595C26.5111 48.824 27.4167 47.0106 28.8937 45.7125C22.3204 44.3983 17.6812 40.6281 17.6812 34.5C17.6812 31.3433 18.948 28.442 21.059 26.0993C20.8434 25.488 20.4844 24.2513 20.4844 22.2363C20.4844 20.9048 20.5771 19.2704 21.1852 17.6812C21.1852 17.6812 25.1828 17.7093 28.953 21.28C30.6931 20.7733 32.5551 20.4844 34.5 20.4844C36.4449 20.4844 38.3069 20.7733 40.047 21.28C43.8172 17.7093 47.8148 17.6812 47.8148 17.6812C48.4261 19.2704 48.5156 20.9048 48.5156 22.2363C48.5156 24.4088 48.2267 25.6755 48.0499 26.2222C50.0962 28.5434 51.3187 31.3993 51.3187 34.5C51.3187 40.6281 46.6796 44.3983 40.1063 45.7125C41.8614 47.2542 42.9094 49.5 42.9094 52.0195V61.245C42.2884 61.4402 41.6566 61.6095 41.0173 61.7615C53.3542 58.8225 62.5312 47.7361 62.5312 34.5C62.5312 19.0192 49.9808 6.46875 34.5 6.46875ZM36.4546 62.4558C35.8088 62.5011 35.1577 62.5312 34.5 62.5312C35.1577 62.5312 35.8078 62.5 36.4546 62.4558ZM34.5 62.5312C33.8423 62.5312 33.1912 62.5011 32.5454 62.4558C33.1922 62.5 33.8423 62.5312 34.5 62.5312ZM32.1152 62.4234C30.8031 62.3124 29.5158 62.1119 28.262 61.8262C29.5169 62.1108 30.8031 62.3124 32.1152 62.4234Z" fill="black"/>
</svg>
