<svg width="28" height="24" viewBox="0 0 28 24" fill="none" xmlns="http://www.w3.org/2000/svg">
<path d="M27.684 3.132H22.608V23.184C21.912 23.184 21.24 23.04 20.592 22.752C19.968 22.488 19.656 22.2 19.656 21.888V13.86C18.768 14.172 17.7 14.328 16.452 14.328H15.984C16.008 14.424 16.02 14.592 16.02 14.832C16.02 16.368 15.54 17.628 14.58 18.612C13.62 19.572 12.3 20.052 10.62 20.052C8.36395 20.052 6.34795 19.212 4.57195 17.532C2.79595 15.828 1.35595 13.644 0.251953 10.98C0.731953 10.476 1.28395 10.176 1.90795 10.08C3.05995 12.456 4.24795 14.256 5.47195 15.48C6.69595 16.704 8.12395 17.316 9.75595 17.316C10.884 17.316 11.748 17.04 12.348 16.488C12.948 15.936 13.248 15.204 13.248 14.292C13.248 13.38 12.948 12.636 12.348 12.06C11.772 11.484 11.028 11.196 10.116 11.196C9.20395 11.196 8.42395 11.352 7.77595 11.664C7.10395 11.112 6.63595 10.272 6.37195 9.144C9.99595 8.16 11.808 6.624 11.808 4.536C11.808 3.192 11.028 2.52 9.46795 2.52C7.93195 2.52 6.39595 3.276 4.85995 4.788C4.04395 4.044 3.47995 3.144 3.16795 2.088C4.91995 0.696 6.65995 0 8.38795 0C10.14 0 11.544 0.492 12.6 1.476C13.656 2.436 14.184 3.636 14.184 5.076C14.184 6.948 13.38 8.412 11.772 9.468C13.476 9.996 14.676 10.896 15.372 12.168C17.052 11.928 18.48 11.472 19.656 10.8V3.132H16.38C15.78 2.412 15.48 1.524 15.48 0.468H26.784C27.384 1.236 27.684 2.124 27.684 3.132Z" fill="#524FE0"/>
</svg>
