<svg width="25" height="22" viewBox="0 0 25 22" fill="none" xmlns="http://www.w3.org/2000/svg">
<path d="M9.34995 0L13.1219 0.0459994C17.1393 0.506 19.6999 2.024 20.8039 4.6C20.9266 4.876 21.0186 5.152 21.0799 5.428L21.2179 5.934L21.2639 11.454C21.2639 15.042 21.2946 16.8973 21.3559 17.02C21.6013 17.2653 22.2606 17.4187 23.3339 17.48C23.8246 17.48 24.1773 17.5413 24.3919 17.664C24.5759 17.848 24.6679 18.3387 24.6679 19.136C24.6679 19.9333 24.5606 20.424 24.3459 20.608C24.0393 20.7307 23.0579 20.792 21.4019 20.792C19.5619 20.7613 18.3506 20.654 17.7679 20.47C16.8173 20.1633 16.2039 19.688 15.9279 19.044C15.8053 18.7987 15.7439 18.6607 15.7439 18.63C15.7439 18.5993 15.6059 18.676 15.3299 18.86C13.9806 19.9333 12.1713 20.6387 9.90195 20.976C8.70595 21.0987 7.77061 21.114 7.09594 21.022C4.33594 20.7153 2.38861 19.5807 1.25394 17.618C0.977944 17.158 0.778611 16.6827 0.655944 16.192C0.563944 15.8547 0.517944 15.4253 0.517944 14.904C0.517944 14.168 0.640611 13.5393 0.885944 13.018C1.25394 12.282 1.75994 11.6533 2.40394 11.132C3.47728 10.304 4.84194 9.66 6.49794 9.2C8.52194 8.58667 10.9293 8.21867 13.7199 8.096L14.8699 8.05V7.222L14.8239 6.026V5.98C14.6399 4.692 14.0113 3.78733 12.9379 3.266C12.2633 2.92867 11.3893 2.76 10.3159 2.76C9.05861 2.76 8.39928 2.79067 8.33794 2.852L8.47594 3.128C8.72128 3.55733 8.82861 4.10933 8.79795 4.784C8.79795 5.27467 8.76728 5.62733 8.70595 5.842C8.52195 6.394 8.24594 6.854 7.87794 7.222C7.47928 7.62067 7.00394 7.912 6.45194 8.096C6.20661 8.15733 5.85394 8.188 5.39394 8.188C4.93394 8.188 4.59661 8.15733 4.38194 8.096C3.79928 7.912 3.30861 7.62067 2.90994 7.222C2.54194 6.854 2.26594 6.394 2.08194 5.842C2.02061 5.62733 1.98994 5.27467 1.98994 4.784C1.98994 4.29333 2.02061 3.94067 2.08194 3.726C2.54194 2.03933 4.02928 0.92 6.54394 0.367999C7.37194 0.184 8.30728 0.0613335 9.34995 0ZM14.8699 13.018C14.8699 11.4233 14.8546 10.626 14.8239 10.626C14.7933 10.626 14.7166 10.6413 14.5939 10.672C12.7846 10.7947 11.2053 11.1167 9.85594 11.638C8.41461 12.2207 7.50994 13.0333 7.14194 14.076C6.98861 14.5053 6.97328 15.0573 7.09594 15.732C7.40261 16.9587 8.10795 17.756 9.21195 18.124C9.27328 18.1547 9.34994 18.1853 9.44195 18.216C10.5766 18.4 11.7726 18.17 13.0299 17.526C13.1219 17.4953 13.2139 17.4493 13.3059 17.388C13.8886 17.02 14.3026 16.606 14.5479 16.146C14.7319 15.778 14.8393 15.1647 14.8699 14.306V13.018Z" fill="#524FE0"/>
</svg>
