<svg width="31" height="22" viewBox="0 0 31 22" fill="none" xmlns="http://www.w3.org/2000/svg">
<path d="M9.63 20.7C7.69 20.7 6.07 20.46 4.77 19.98C3.47 19.52 2.49 18.87 1.83 18.03C1.19 17.21 0.869995 16.26 0.869995 15.18C0.869995 14.68 0.979995 14.19 1.2 13.71C1.42 13.23 1.76 12.83 2.22 12.51C2.48 12.33 2.76 12.18 3.06 12.06C3.36 11.94 3.75 11.85 4.23 11.79C4.73 11.73 5.38 11.7 6.18 11.7H28.59L28.68 13.86H6.51C5.89 13.86 5.41 13.87 5.07 13.89C4.75 13.91 4.51 13.95 4.35 14.01C4.19 14.07 4.03 14.16 3.87 14.28C3.57 14.52 3.42 14.86 3.42 15.3C3.42 16.28 3.95 17.06 5.01 17.64C6.07 18.22 7.67 18.51 9.81 18.51H10.32C12.34 18.51 14.07 18.27 15.51 17.79C16.97 17.33 18.17 16.69 19.11 15.87C20.07 15.05 20.79 14.12 21.27 13.08L21.39 12.51C21.57 12.01 21.7 11.51 21.78 11.01C21.86 10.49 21.9 9.97 21.9 9.45C21.9 8.29 21.7 7.19 21.3 6.15C20.9 5.11 20.28 4.24 19.44 3.54C18.62 2.82 17.56 2.36 16.26 2.16C16 2.12 15.75 2.1 15.51 2.1C15.29 2.08 15.05 2.07 14.79 2.07C14.17 2.07 13.6 2.18 13.08 2.4C12.56 2.62 12.14 2.95 11.82 3.39C11.52 3.83 11.37 4.39 11.37 5.07C11.37 5.81 11.59 6.44 12.03 6.96C12.49 7.46 13.13 7.71 13.95 7.71C14.71 7.71 15.31 7.48 15.75 7.02C16.21 6.54 16.44 5.86 16.44 4.98C16.44 4.32 16.33 3.73 16.11 3.21C15.91 2.67 15.55 2.16 15.03 1.68L16.74 1.17C17.1 1.47 17.43 1.82 17.73 2.22C18.05 2.62 18.3 3.07 18.48 3.57C18.68 4.05 18.78 4.56 18.78 5.1C18.78 5.8 18.67 6.44 18.45 7.02C18.25 7.58 17.94 8.07 17.52 8.49C17.1 8.89 16.58 9.2 15.96 9.42C15.36 9.64 14.67 9.75 13.89 9.75C12.99 9.75 12.17 9.58 11.43 9.24C10.69 8.9 10.1 8.39 9.66 7.71C9.22 7.03 9 6.19 9 5.19C9 3.95 9.29 2.95 9.87 2.19C10.45 1.43 11.2 0.880001 12.12 0.54C13.06 0.18 14.05 0 15.09 0C16.63 0 17.98 0.26 19.14 0.780001C20.32 1.3 21.3 2.01 22.08 2.91C22.88 3.81 23.48 4.82 23.88 5.94C24.28 7.06 24.48 8.22 24.48 9.42C24.48 9.96 24.45 10.49 24.39 11.01C24.33 11.51 24.24 12 24.12 12.48L23.94 13.14C23.38 14.78 22.44 16.16 21.12 17.28C19.82 18.4 18.24 19.25 16.38 19.83C14.54 20.41 12.5 20.7 10.26 20.7H9.63ZM28.41 21.6V0.360001H30.99V21.6H28.41Z" fill="#524FE0"/>
</svg>
