<svg width="52" height="52" viewBox="0 0 52 52" fill="none" xmlns="http://www.w3.org/2000/svg">
<path d="M26.4529 2.08204C26.336 2.08258 26.2181 2.10193 26.1058 2.14023L3.8349 9.89152C3.36249 10.0554 3.06664 10.5272 3.12835 11.0241L6.64864 39.8826C6.69013 40.2241 6.89194 40.525 7.19518 40.6889L25.9728 50.8944C26.1303 50.9805 26.3054 51.0232 26.4799 51.0232C26.6554 51.0232 26.8326 50.9795 26.9911 50.8923L45.8643 40.5475C46.1644 40.3826 46.3684 40.0827 46.4088 39.7433L49.927 10.8869C49.9887 10.3879 49.6899 9.91193 49.2122 9.75021L26.7978 2.13607C26.6861 2.09883 26.5698 2.08151 26.4529 2.08204ZM26.5277 7.39988L40.3595 37.1914H35.638L32.6788 30.8158H20.3765L17.4173 37.1914H12.6959L26.5277 7.39988ZM26.5277 17.5077L22.3569 26.5516H30.6984L26.5277 17.5077Z" fill="black"/>
</svg>
