<svg width="52" height="52" viewBox="0 0 52 52" fill="none" xmlns="http://www.w3.org/2000/svg">
<g clip-path="url(#clip0_1_62)">
<path d="M16.9325 0.0324714C16.7984 0.0568464 16.6603 0.0812214 16.5425 0.162471C16.0671 0.483409 15.9615 1.14966 16.2825 1.62497L18.525 4.97247C15.0596 6.80872 12.4759 9.85966 11.635 13.52H40.365C39.524 9.85966 36.9403 6.80872 33.475 4.97247L35.7175 1.62497C36.0384 1.14966 35.9328 0.483409 35.4575 0.162471C34.9781 -0.158466 34.3159 -0.0203411 33.995 0.454972L31.525 4.09497C29.8106 3.46935 27.95 3.11997 26 3.11997C24.05 3.11997 22.1893 3.46935 20.475 4.09497L18.005 0.454972C17.7653 0.0974714 17.3306 -0.0447162 16.9325 0.0324714ZM20.28 8.31997C21.1412 8.31997 21.84 9.01872 21.84 9.87997C21.84 10.7453 21.1412 11.44 20.28 11.44C19.4146 11.44 18.72 10.7453 18.72 9.87997C18.72 9.01872 19.4146 8.31997 20.28 8.31997ZM31.72 8.31997C32.5853 8.31997 33.28 9.01872 33.28 9.87997C33.28 10.7453 32.5853 11.44 31.72 11.44C30.8587 11.44 30.16 10.7453 30.16 9.87997C30.16 9.01872 30.8587 8.31997 31.72 8.31997ZM8.31995 15.6C6.59745 15.6 5.19995 16.9975 5.19995 18.72V33.28C5.19995 35.0025 6.59745 36.4 8.31995 36.4C8.68558 36.4 9.03495 36.3228 9.35995 36.205V15.795C9.03495 15.6772 8.68558 15.6 8.31995 15.6ZM11.44 15.6V38.48C11.44 40.1984 12.8415 41.6 14.56 41.6H37.44C39.1584 41.6 40.56 40.1984 40.56 38.48V15.6H11.44ZM43.68 15.6C43.3143 15.6 42.965 15.6772 42.64 15.795V36.205C42.965 36.3187 43.3143 36.4 43.68 36.4C45.4025 36.4 46.8 35.0025 46.8 33.28V18.72C46.8 16.9975 45.4025 15.6 43.68 15.6ZM15.6 43.68V47.84C15.6 50.1353 17.4646 52 19.76 52C22.0553 52 23.92 50.1353 23.92 47.84V43.68H15.6ZM28.08 43.68V47.84C28.08 50.1353 29.9446 52 32.24 52C34.5353 52 36.4 50.1353 36.4 47.84V43.68H28.08Z" fill="black"/>
</g>
<defs>
<clipPath id="clip0_1_62">
<rect width="52" height="52" fill="white"/>
</clipPath>
</defs>
</svg>
