<svg width="52" height="52" viewBox="0 0 52 52" fill="none" xmlns="http://www.w3.org/2000/svg">
<g clip-path="url(#clip0_4_410)">
<path d="M8.42836 33.956L13.5525 0.998836C13.5893 0.754367 13.7022 0.527732 13.8753 0.351218C14.0484 0.174705 14.2728 0.0573178 14.5165 0.0157805C14.7602 -0.0257569 15.0108 0.0106745 15.2326 0.119884C15.4544 0.229094 15.636 0.405512 15.7517 0.624003L21.2615 10.9612L8.42836 33.956ZM44.8154 41.9553L39.9404 11.622C39.9069 11.4076 39.8146 11.2068 39.6736 11.0419C39.5326 10.877 39.3485 10.7546 39.1419 10.6882C38.9354 10.6219 38.7144 10.6144 38.5038 10.6664C38.2931 10.7184 38.1011 10.828 37.9492 10.9828L7.18469 41.9575L24.206 51.5493C24.7314 51.8445 25.3238 51.9995 25.9264 51.9995C26.5289 51.9995 27.1214 51.8445 27.6467 51.5493L44.8154 41.9553ZM30.9834 15.4852L27.04 7.94084C26.9405 7.75111 26.791 7.59222 26.6077 7.48136C26.4244 7.3705 26.2143 7.3119 26 7.3119C25.7858 7.3119 25.5756 7.3705 25.3923 7.48136C25.209 7.59222 25.0595 7.75111 24.96 7.94084L7.64836 38.9653L30.9834 15.4852Z" fill="black"/>
</g>
<defs>
<clipPath id="clip0_4_410">
<rect width="52" height="52" fill="white"/>
</clipPath>
</defs>
</svg>
