<svg width="52" height="52" viewBox="0 0 52 52" fill="none" xmlns="http://www.w3.org/2000/svg">
<path d="M25.9999 2.08V16.64H18.7199C14.7107 16.64 11.4399 13.3692 11.4399 9.36C11.4399 5.3508 14.7107 2.08 18.7199 2.08H25.9999ZM25.9999 18.72V33.28H18.7199C14.7107 33.28 11.4399 30.0092 11.4399 26C11.4399 21.9908 14.7107 18.72 18.7199 18.72H25.9999ZM25.9999 35.36V42.64C25.9999 46.6492 22.7291 49.92 18.7199 49.92C14.7107 49.92 11.4399 46.6492 11.4399 42.64C11.4399 38.6308 14.7107 35.36 18.7199 35.36H25.9999ZM42.64 9.36C42.64 13.3692 39.3692 16.64 35.36 16.64H28.08V2.08H35.36C39.3692 2.08 42.64 5.3508 42.64 9.36ZM35.36 18.72C33.4292 18.72 31.5775 19.487 30.2122 20.8523C28.8469 22.2175 28.08 24.0692 28.08 26C28.08 27.9308 28.8469 29.7825 30.2122 31.1477C31.5775 32.513 33.4292 33.28 35.36 33.28C37.2907 33.28 39.1424 32.513 40.5077 31.1477C41.873 29.7825 42.64 27.9308 42.64 26C42.64 24.0692 41.873 22.2175 40.5077 20.8523C39.1424 19.487 37.2907 18.72 35.36 18.72Z" fill="black"/>
</svg>
