<svg width="52" height="52" viewBox="0 0 52 52" fill="none" xmlns="http://www.w3.org/2000/svg">
<g clip-path="url(#clip0_1_116)">
<path d="M6.23998 26C6.23998 15.0868 15.0868 6.23998 26 6.23998C30.3932 6.23998 34.4492 7.67123 37.731 10.097C38.5918 8.07097 40.3265 6.5058 42.462 5.87458C37.9805 2.20533 32.246 0 26 0C11.6406 0 0 11.6406 0 26C0 40.3593 11.6406 52 26 52C40.3593 52 52 40.3593 52 26C52 22.9947 51.4888 20.1037 50.5475 17.4125C49.2665 19.1442 47.251 20.2995 44.9613 20.4178C45.4808 22.1858 45.76 24.0585 45.76 26C45.76 36.9132 36.9132 45.76 26 45.76C15.0868 45.76 6.23998 36.9132 6.23998 26Z" fill="black"/>
<path d="M51.4653 20.7322C51.2316 19.5973 50.924 18.489 50.5475 17.4125C49.2666 19.1442 47.2511 20.2995 44.9613 20.4178C45.3288 21.6683 45.576 22.9713 45.6891 24.314C48.1006 24.0175 50.1851 22.6645 51.4653 20.7322Z" fill="black"/>
<path d="M26 37.375C32.2675 37.375 37.375 32.2772 37.375 26C37.375 19.7325 32.2771 14.625 26 14.625C19.7228 14.625 14.625 19.7325 14.625 26C14.625 32.2675 19.7325 37.375 26 37.375Z" fill="black"/>
<path d="M43.0625 16.25C46.2037 16.25 48.75 13.7036 48.75 10.5625C48.75 7.42141 46.2037 4.87503 43.0625 4.87503C39.9213 4.87503 37.375 7.42141 37.375 10.5625C37.375 13.7036 39.9213 16.25 43.0625 16.25Z" fill="black"/>
</g>
<defs>
<clipPath id="clip0_1_116">
<rect width="52" height="52" fill="white"/>
</clipPath>
</defs>
</svg>
