<svg width="52" height="52" viewBox="0 0 52 52" fill="none" xmlns="http://www.w3.org/2000/svg">
<path d="M45.8132 12.3232L27.8988 1.92116C26.769 1.27766 25.298 1.27766 24.1593 1.92116L6.05353 12.3232C4.88759 12.9939 4.0625 14.2545 4.0625 15.6029V36.3793C4.0625 37.7276 4.90913 38.9886 6.07506 39.663L10.8587 42.38C13.145 43.5061 13.9531 43.5061 14.9935 43.5061C18.3788 43.5061 20.3125 41.459 20.3125 37.8885V17.3769C20.3125 17.0873 20.1618 16.6563 19.8774 16.6563H17.5931C17.3038 16.6563 16.6562 17.0873 16.6562 17.3765V37.8881C16.6562 39.4709 15.2246 41.0459 12.5491 39.7081L7.60622 36.8591C7.43397 36.7656 7.3125 36.5775 7.3125 36.3793V15.6029C7.3125 15.407 7.53797 15.2104 7.71144 15.1101L25.7587 4.72591C25.9273 4.63044 26.1751 4.63044 26.3433 4.72591L44.1703 15.1076C44.341 15.2104 44.2808 15.4009 44.2808 15.6029V36.3793C44.2808 36.5775 44.3552 36.7705 44.1866 36.866L26.2767 47.2562C26.1231 47.3484 25.9326 47.3484 25.7644 47.2562L21.1709 44.5144C21.0324 44.434 20.8678 44.4052 20.735 44.4795C19.4569 45.2039 19.2213 45.3001 18.0225 45.7157C17.7275 45.8185 17.2924 45.9969 18.189 46.4994L24.2007 50.0557C24.7747 50.3872 25.4258 50.5618 26.0886 50.5619C26.7556 50.5619 27.4089 50.3888 27.9845 50.0557L45.8128 39.663C46.9787 38.9838 47.5312 37.7276 47.5312 36.3793V15.6029C47.5312 14.2545 46.9788 12.9972 45.8132 12.3232ZM31.6509 33.087C26.8873 33.087 25.8379 31.7728 25.4881 29.404C25.4475 29.1489 25.231 28.8438 24.9714 28.8438H22.6432C22.3551 28.8438 22.1236 29.1931 22.1236 29.4799C22.1236 32.513 23.7725 36.1879 31.6513 36.1879C37.3547 36.1879 40.6246 33.9719 40.6246 30.0499C40.6246 26.1613 37.9974 25.1408 32.4663 24.4087C26.8755 23.6698 26.3075 23.2964 26.3075 21.9867C26.3075 20.9069 26.7885 19.4667 30.9282 19.4667C34.6271 19.4667 35.9905 20.2605 36.5515 22.7537C36.5995 22.9881 36.8136 23.1563 37.0553 23.1563H39.3928C39.5367 23.1563 39.674 23.0982 39.7747 22.9954C39.8722 22.8849 39.9238 22.7464 39.9108 22.5977C39.5488 18.3044 36.6966 16.3036 30.9278 16.3036C25.7965 16.3036 22.7354 18.4706 22.7354 22.1029C22.7354 26.0427 25.781 27.1314 30.7068 27.6185C36.5995 28.1962 37.0577 29.0574 37.0577 30.2165C37.0577 32.2294 35.4417 33.087 31.6509 33.087Z" fill="black"/>
</svg>
